<?xml version="1.0" encoding="utf-8"?>
<!-- Generator: Adobe Illustrator 16.0.3, SVG Export Plug-In . SVG Version: 6.00 Build 0)  -->
<!DOCTYPE svg PUBLIC "-//W3C//DTD SVG 1.1//EN" "http://www.w3.org/Graphics/SVG/1.1/DTD/svg11.dtd">
<svg version="1.1" id="Layer_1" xmlns="http://www.w3.org/2000/svg" xmlns:xlink="http://www.w3.org/1999/xlink" x="0px" y="0px"
	 width="80px" height="480px" viewBox="0 0 80 480" enable-background="new 0 0 80 480" xml:space="preserve">
<g>
	<g>
		<defs>
			<rect id="SVGID_1_" width="80" height="80"/>
		</defs>
		<clipPath id="SVGID_2_">
			<use xlink:href="#SVGID_1_"  overflow="visible"/>
		</clipPath>
		<g clip-path="url(#SVGID_2_)">
			<defs>
				<rect id="SVGID_3_" width="80" height="80"/>
			</defs>
			<clipPath id="SVGID_4_">
				<use xlink:href="#SVGID_3_"  overflow="visible"/>
			</clipPath>
			<path clip-path="url(#SVGID_4_)" fill="#010101" d="M19.124,68.745l-5.387-48.613l0.709-0.019l-0.141-2.249
				c0,0-0.825-1.85-2.543-1.842l53.424-0.709c0,0,2.693-0.141,2.553,2.267l3.682,18.851c0,0,0.958,2.658-1.486,2.658l1.063,18.708
				c0,0,0.638,2.658-1.489,2.658L19.124,68.745z"/>
			
				<path clip-path="url(#SVGID_4_)" fill="none" stroke="#FFFFFF" stroke-width="0.25" stroke-linecap="round" stroke-miterlimit="10" d="
				M14.208,17.864l2.895,23.35c0,0-0.213,1.7,3.402,1.912l49.428-3.506"/>
			<polyline clip-path="url(#SVGID_4_)" fill="#FFFFFF" points="45.938,42.272 45.938,40.558 52.11,40.075 52.11,41.875 
				45.938,42.444 			"/>
			
				<path clip-path="url(#SVGID_4_)" fill="none" stroke="#010101" stroke-width="0.25" stroke-linecap="round" stroke-miterlimit="10" d="
				M12.036,16.155c0,0-2.409-0.559-2.409,5.537L8.425,63.484c0,0-0.357,3.028,1.84,2.923c0,0,1.878-0.355,2.126-0.283
				c0.248,0.072,0.257,0.867,0.638,0.921c0.381,0.053,2.365-1.24,3.047-0.993c0.682,0.249,0.576,2.321,1.133,2.693
				c0.558,0.371,1.17,0,1.17,0"/>
			<polygon clip-path="url(#SVGID_4_)" fill="none" stroke="#010101" stroke-width="0.5" stroke-miterlimit="10" points="
				27.573,15.813 28.974,12.124 50.188,11.863 52.733,15.542 51.012,15.5 48.884,11.881 30.441,12.216 29.613,15.785 			"/>
			
				<line clip-path="url(#SVGID_4_)" fill="none" stroke="#010101" stroke-width="0.25" stroke-linecap="round" stroke-miterlimit="10" x1="9.535" y1="63.839" x2="10.358" y2="21.214"/>
		</g>
	</g>
</g>
<g>
	<g>
		<defs>
			<rect id="SVGID_5_" y="80" width="80" height="80"/>
		</defs>
		<clipPath id="SVGID_6_">
			<use xlink:href="#SVGID_5_"  overflow="visible"/>
		</clipPath>
		<g clip-path="url(#SVGID_6_)">
			<defs>
				<rect id="SVGID_7_" y="80" width="80" height="80"/>
			</defs>
			<clipPath id="SVGID_8_">
				<use xlink:href="#SVGID_7_"  overflow="visible"/>
			</clipPath>
			<path clip-path="url(#SVGID_8_)" fill="#FFFFFF" d="M53.521,107.252c-1.758,2.742-5.244,3.64-7.789,2.011
				c-2.545-1.632-3.181-5.177-1.422-7.921l7.602-11.856c1.373-2.14,2.576-3.94,4.781-3.517c0.625,0.125,2.449,1.142,3.012,1.502
				c0.316,0.202,2.109,1.399,2.365,1.659c1.803,1.813,0.596,3.86-0.943,6.258L53.521,107.252z"/>
			
				<path clip-path="url(#SVGID_8_)" fill="none" stroke="#000000" stroke-width="0.5" stroke-linejoin="round" stroke-miterlimit="10" d="
				M53.521,107.252c-1.758,2.742-5.244,3.64-7.789,2.011c-2.545-1.632-3.181-5.177-1.422-7.921l7.602-11.856
				c1.373-2.14,2.576-3.94,4.781-3.517c0.625,0.125,2.449,1.142,3.012,1.502c0.316,0.202,2.109,1.399,2.365,1.659
				c1.803,1.813,0.596,3.86-0.943,6.258L53.521,107.252z"/>
			<polygon clip-path="url(#SVGID_8_)" fill="#FFFFFF" points="29.347,145.444 17.03,154.092 19.753,139.292 46.929,96.907 
				56.522,103.062 			"/>
			
				<polygon clip-path="url(#SVGID_8_)" fill="none" stroke="#000000" stroke-width="0.5" stroke-linejoin="round" stroke-miterlimit="10" points="
				29.347,145.444 17.03,154.092 19.753,139.292 46.929,96.907 56.522,103.062 			"/>
			<polygon clip-path="url(#SVGID_8_)" fill="#FFFFFF" points="57.567,101.431 47.974,95.279 49.413,93.027 59.009,99.179 			"/>
			
				<polygon clip-path="url(#SVGID_8_)" fill="none" stroke="#000000" stroke-width="0.5" stroke-linejoin="round" stroke-miterlimit="10" points="
				57.567,101.431 47.974,95.279 49.413,93.027 59.009,99.179 			"/>
			<polygon clip-path="url(#SVGID_8_)" points="53.981,107.029 44.386,100.877 45.793,98.676 55.388,104.83 			"/>
			<polygon clip-path="url(#SVGID_8_)" fill="none" stroke="#000000" stroke-width="0.25" stroke-miterlimit="10" points="
				53.981,107.029 44.386,100.877 45.793,98.676 55.388,104.83 			"/>
			<path clip-path="url(#SVGID_8_)" fill="none" stroke="#000000" stroke-width="0.25" stroke-miterlimit="10" d="M19.753,139.292
				c0,0,3.371-2.165,3.271,2.098c0,0,3.258-2.001,3.149,2.019c0,0,3.915-1.488,3.276,1.876"/>
			<path clip-path="url(#SVGID_8_)" d="M21.787,150.755c0.467-4.456-3.706-2.382-3.706-2.382l-1.052,5.72L21.787,150.755z"/>
			<line clip-path="url(#SVGID_8_)" x1="23.024" y1="141.39" x2="47.661" y2="102.972"/>
			
				<line clip-path="url(#SVGID_8_)" fill="none" stroke="#000000" stroke-width="0.15" stroke-miterlimit="10" x1="23.024" y1="141.39" x2="47.661" y2="102.972"/>
			<line clip-path="url(#SVGID_8_)" x1="50.782" y1="104.974" x2="26.34" y2="143.096"/>
			
				<line clip-path="url(#SVGID_8_)" fill="none" stroke="#000000" stroke-width="0.15" stroke-miterlimit="10" x1="50.782" y1="104.974" x2="26.34" y2="143.096"/>
			<polygon clip-path="url(#SVGID_8_)" points="56.53,103.054 46.931,96.901 47.974,95.279 57.567,101.431 			"/>
			<polygon clip-path="url(#SVGID_8_)" fill="none" stroke="#000000" stroke-width="0.5" stroke-miterlimit="10" points="
				56.53,103.054 46.931,96.901 47.974,95.279 57.567,101.431 			"/>
			<polygon clip-path="url(#SVGID_8_)" points="58.946,99.276 49.353,93.131 50.396,91.505 59.987,97.657 			"/>
			
				<polygon clip-path="url(#SVGID_8_)" fill="none" stroke="#000000" stroke-width="0.5" stroke-linejoin="round" stroke-miterlimit="10" points="
				58.946,99.276 49.353,93.131 50.396,91.505 59.987,97.657 			"/>
		</g>
	</g>
</g>
<g>
	<g>
		<defs>
			<rect id="SVGID_9_" x="0.5" y="160" width="80" height="80"/>
		</defs>
		<clipPath id="SVGID_10_">
			<use xlink:href="#SVGID_9_"  overflow="visible"/>
		</clipPath>
		<g clip-path="url(#SVGID_10_)">
			<defs>
				<rect id="SVGID_11_" x="0.5" y="160" width="80" height="80"/>
			</defs>
			<clipPath id="SVGID_12_">
				<use xlink:href="#SVGID_11_"  overflow="visible"/>
			</clipPath>
			<path clip-path="url(#SVGID_12_)" fill="#010101" d="M40.799,189.708c0,0-9.179,5.119-3.297,16.663l-6.288-0.547
				c0,0-6.343-8.75,1.21-16.328C32.424,189.497,37.713,190.063,40.799,189.708"/>
			
				<path clip-path="url(#SVGID_12_)" fill="none" stroke="#010101" stroke-width="0.25" stroke-linejoin="round" stroke-miterlimit="10" d="
				M12.796,207.258c0,0-0.742,0.223-1.295-0.371c-2.547-2.73-9.321-12.426,0.067-19.454c0.341-0.255,0.707-0.022,1.919,0.156
				c0,0,23.625,4.579,49.552,0.291c0,0,16.156-3.492,8.967,16.765c0,0,0.648,4.104-6.986,6.951c-1.031,0.387-1.49,0.406-2.24,0.199
				c0,0-0.408-0.096-1.432-0.396C54.898,209.498,30.19,202.662,12.796,207.258z"/>
			<path clip-path="url(#SVGID_12_)" fill="#FFFFFF" d="M36.956,195.487c0.181,3.619-2.466,6.688-5.916,6.862
				c-3.451,0.174-6.395-2.619-6.574-6.236c-0.182-3.618,2.469-6.69,5.917-6.864C33.833,189.075,36.776,191.87,36.956,195.487"/>
			
				<ellipse transform="matrix(0.9987 -0.0501 0.0501 0.9987 -9.7626 1.7827)" clip-path="url(#SVGID_12_)" fill="none" stroke="#010101" stroke-width="0.25" stroke-miterlimit="10" cx="30.711" cy="195.8" rx="6.253" ry="6.558"/>
			<path clip-path="url(#SVGID_12_)" fill="#010101" d="M35.924,195.067c0.181,3.619-2.47,6.691-5.917,6.861
				c-3.452,0.174-6.392-2.619-6.575-6.236c-0.182-3.617,2.467-6.69,5.921-6.863C32.799,188.657,35.743,191.448,35.924,195.067"/>
			<path clip-path="url(#SVGID_12_)" fill="#FFFFFF" d="M57.875,198.353c-1.295,6.622,1.219,12.686,5.615,13.545
				c4.4,0.859,9.061-3.803,10.307-10.428c1.486-7.897-0.754-12.865-5.617-13.546C63.742,187.304,59.172,191.733,57.875,198.353"/>
			<path clip-path="url(#SVGID_12_)" fill="none" stroke="#010101" stroke-width="0.25" stroke-miterlimit="10" d="M57.875,198.353
				c-1.295,6.622,1.219,12.686,5.615,13.545c4.4,0.859,9.061-3.803,10.307-10.428c1.486-7.897-0.754-12.865-5.617-13.546
				C63.742,187.304,59.172,191.733,57.875,198.353z"/>
			<path clip-path="url(#SVGID_12_)" fill="none" stroke="#010101" stroke-width="0.25" stroke-miterlimit="10" d="M70.582,208.65
				c2.922-5.268,4.406-14.124-0.625-17.36c-4.508-2.076-7.234,2.506-8.289,5.935c-0.766,3.105-1.223,6.192,0.41,9.272"/>
			<path clip-path="url(#SVGID_12_)" fill="none" stroke="#010101" stroke-width="0.25" stroke-miterlimit="10" d="M62.035,206.418
				c1.82,2.896,5.316,1.051,6.441-0.701c1.213-1.898,1.947-4.322,1.684-6.58c-0.305-2.628-2.514-4.889-4.984-3.05
				c-0.6,0.447-1.387,1.965-1.578,2.983"/>
			<path clip-path="url(#SVGID_12_)" fill="#FFFFFF" d="M64.24,197.353c-0.277,0.5-0.549,1.088-0.643,1.768
				c-0.199,1.441,0.473,2.725,1.492,2.868c1.029,0.141,2.023-0.912,2.223-2.351l-3.748-0.007"/>
			<path clip-path="url(#SVGID_12_)" fill="none" stroke="#010101" stroke-width="0.25" stroke-miterlimit="10" d="M64.24,197.353
				c-0.277,0.5-0.549,1.088-0.643,1.768c-0.199,1.441,0.473,2.725,1.492,2.868c1.029,0.141,2.023-0.912,2.223-2.351l-3.748-0.007"/>
			
				<line clip-path="url(#SVGID_12_)" fill="none" stroke="#010101" stroke-width="0.25" stroke-miterlimit="10" x1="66.713" y1="195.427" x2="62.283" y2="195.483"/>
			
				<line clip-path="url(#SVGID_12_)" fill="none" stroke="#010101" stroke-width="0.25" stroke-miterlimit="10" x1="61.268" y1="191.055" x2="67.785" y2="190.765"/>
			<path clip-path="url(#SVGID_12_)" fill="#010101" d="M31.061,205.596c0,0,1.602,6.471,0.16,9.189
				c-0.401,0.758,3.015-3.709,3.015-3.709s1.262-0.15,1.806,4.412c0,0,1.781-1.004,1.371-9.295"/>
		</g>
	</g>
</g>
<g>
	<g>
		<defs>
			<rect id="SVGID_13_" x="0.5" y="240" width="80" height="80"/>
		</defs>
		<clipPath id="SVGID_14_">
			<use xlink:href="#SVGID_13_"  overflow="visible"/>
		</clipPath>
		<g clip-path="url(#SVGID_14_)">
			<defs>
				<rect id="SVGID_15_" x="0.5" y="240" width="80" height="80"/>
			</defs>
			<clipPath id="SVGID_16_">
				<use xlink:href="#SVGID_15_"  overflow="visible"/>
			</clipPath>
			
				<path clip-path="url(#SVGID_16_)" fill="none" stroke="#010101" stroke-width="0.25" stroke-linecap="round" stroke-miterlimit="10" d="
				M17.152,259.695l2.004-1.039h0.898l2.419-1.035c0,0,0.604-0.258,0.69-2.143c0,0,3.569-2.47,6.84-3.453
				c0.158-0.047,6.498-0.897,10.782,2.487v0.966c0,0-4.217-1.449-6.703-1.175v0.554c0,0,4.697,0.553,6.356,1.381v0.83
				c0,0-3.497-1.391-8.628-1.234l1.511,2.686c0,0,0.286,0.725-0.268,0.864l1.271,1.658c0,0,6.347,10.909,7.771,12.127
				c0,0,8.086,11.192,12.232,18.241c0,0,5.389,7.875,7.254,10.367c0,0,0.959,1.138,0,1.605l-5.336,3.626
				c0,0-0.752,0.181-1.296-1.142c0,0-5.459-10.08-6.219-10.985c0,0-11.608-18.915-11.557-19.276
				c0.051-0.363-6.996-11.404-7.515-11.506c0,0-1.037-1.736-0.828-1.89c0,0-0.622,0.36-0.882-0.079l-1.139-1.477
				c0,0-0.961-1.063-2.282-0.467l-2.797,1.504l-0.364,0.725l-1.917,1.32C19.45,263.736,17.083,263.115,17.152,259.695z"/>
			
				<path clip-path="url(#SVGID_16_)" fill="none" stroke="#010101" stroke-width="0.25" stroke-linecap="round" stroke-miterlimit="10" d="
				M40.438,256.239c0,0-0.672-1.024-2.654-1.583"/>
			
				<path clip-path="url(#SVGID_16_)" fill="none" stroke="#010101" stroke-width="0.25" stroke-linecap="round" stroke-miterlimit="10" d="
				M28.648,262.078c0,0-0.492-0.932,0.543-1.526l2.878-1.659c0,0,0.879-0.389,0.879,0.361"/>
			
				<path clip-path="url(#SVGID_16_)" fill="none" stroke="#010101" stroke-width="0.05" stroke-linecap="round" stroke-miterlimit="10" d="
				M17.273,259.85c0,0,1.356,0.91,2.074,3.654"/>
			
				<path clip-path="url(#SVGID_16_)" fill="none" stroke="#010101" stroke-width="0.15" stroke-linecap="round" stroke-miterlimit="10" d="
				M40.438,254.547c0,0-4.853-2.105-9.188-0.519c0,0-0.434,0.226-0.14,1.502l1.226,2.8l-3.159,1.797c0,0-0.313,0.241-0.744-0.276
				c0,0-1.434-1.83-4.078-1.746"/>
			
				<path clip-path="url(#SVGID_16_)" fill="none" stroke="#010101" stroke-width="0.15" stroke-linecap="round" stroke-miterlimit="10" d="
				M23.259,255.48c0,0,0.657,1.139,0.207,1.518"/>
			
				<path clip-path="url(#SVGID_16_)" fill="none" stroke="#010101" stroke-width="0.05" stroke-linecap="round" stroke-miterlimit="10" d="
				M19.347,258.791c0,0,1.709,1.06,2.02,3.287"/>
			
				<path clip-path="url(#SVGID_16_)" fill="none" stroke="#010101" stroke-width="0.15" stroke-linecap="round" stroke-miterlimit="10" d="
				M28.364,260.654c0,0-0.703,0.752,0,1.556"/>
			
				<path clip-path="url(#SVGID_16_)" fill="none" stroke="#010101" stroke-width="0.15" stroke-linecap="round" stroke-miterlimit="10" d="
				M32.561,258.268c0,0,0.59-0.123,0.826,0.523"/>
			<path clip-path="url(#SVGID_16_)" fill="#010101" d="M37.174,275.605c0,0,1.846-2.298,4.498-2.896l1.335,1.732l7.848,11.321
				l5.827,9.071l5.241,7.52c0,0,0.372,0.605-0.445,1.546c-0.543,0.627-5.001,3.239-5.001,3.239s-0.803,0.234-1.24-0.719
				C54.98,305.854,37.174,275.605,37.174,275.605"/>
			<path clip-path="url(#SVGID_16_)" fill="#FFFFFF" d="M39.507,274.619c0,0-1.309,0.451-1.558,1.25l2.777,4.899l13.932,23.241
				c0,0,0.794,1.1,1.587,0.402c0,0-0.992-0.303-1.091-0.75L38.446,275.92C38.446,275.92,38.984,274.771,39.507,274.619"/>
			<path clip-path="url(#SVGID_16_)" fill="none" stroke="#FFFFFF" stroke-width="0.25" stroke-miterlimit="10" d="M56.587,306.864
				c-0.621,0-1.443-0.373-1.028-1.149c0.413-0.778,5.311-4.162,5.907-3.42"/>
			<path clip-path="url(#SVGID_16_)" fill="none" stroke="#010101" stroke-width="0.15" stroke-miterlimit="10" d="M32.974,260.436
				l0.781,0.711c0,0,5.449,9.58,6.683,10.572"/>
		</g>
	</g>
</g>
<g>
	<g>
		<defs>
			<rect id="SVGID_17_" y="320" width="80" height="80"/>
		</defs>
		<clipPath id="SVGID_18_">
			<use xlink:href="#SVGID_17_"  overflow="visible"/>
		</clipPath>
		<g clip-path="url(#SVGID_18_)">
			<defs>
				<rect id="SVGID_19_" y="320" width="80" height="80"/>
			</defs>
			<clipPath id="SVGID_20_">
				<use xlink:href="#SVGID_19_"  overflow="visible"/>
			</clipPath>
			<path clip-path="url(#SVGID_20_)" fill="#010101" d="M40.299,349.709c0,0-9.179,5.119-3.297,16.662l-6.288-0.547
				c0,0-6.343-8.75,1.21-16.328C31.924,349.496,37.213,350.063,40.299,349.709"/>
			
				<path clip-path="url(#SVGID_20_)" fill="none" stroke="#010101" stroke-width="0.25" stroke-linejoin="round" stroke-miterlimit="10" d="
				M12.296,367.258c0,0-0.742,0.223-1.295-0.371c-2.547-2.73-9.321-12.426,0.067-19.454c0.341-0.255,0.707-0.022,1.919,0.156
				c0,0,23.625,4.579,49.552,0.291c0,0,16.156-3.492,8.967,16.765c0,0,0.648,4.104-6.986,6.951c-1.031,0.387-1.49,0.406-2.24,0.199
				c0,0-0.408-0.096-1.432-0.396C54.398,369.498,29.69,362.662,12.296,367.258z"/>
			<path clip-path="url(#SVGID_20_)" fill="#FFFFFF" d="M36.456,355.487c0.181,3.619-2.466,6.688-5.916,6.862
				c-3.451,0.174-6.395-2.619-6.574-6.236c-0.182-3.618,2.469-6.689,5.917-6.863C33.333,349.075,36.276,351.87,36.456,355.487"/>
			
				<ellipse transform="matrix(0.9987 -0.0501 0.0501 0.9987 -17.7722 1.9583)" clip-path="url(#SVGID_20_)" fill="none" stroke="#010101" stroke-width="0.25" stroke-miterlimit="10" cx="30.211" cy="355.8" rx="6.253" ry="6.558"/>
			<path clip-path="url(#SVGID_20_)" fill="#010101" d="M35.424,355.066c0.181,3.619-2.47,6.691-5.917,6.861
				c-3.452,0.174-6.392-2.619-6.575-6.236c-0.182-3.617,2.467-6.689,5.921-6.862C32.299,348.656,35.243,351.447,35.424,355.066"/>
			<path clip-path="url(#SVGID_20_)" fill="#FFFFFF" d="M57.375,358.354c-1.295,6.621,1.219,12.686,5.615,13.545
				c4.4,0.859,9.061-3.803,10.307-10.428c1.486-7.897-0.754-12.865-5.617-13.546C63.242,347.305,58.672,351.732,57.375,358.354"/>
			<path clip-path="url(#SVGID_20_)" fill="none" stroke="#010101" stroke-width="0.25" stroke-miterlimit="10" d="M57.375,358.354
				c-1.295,6.621,1.219,12.686,5.615,13.545c4.4,0.859,9.061-3.803,10.307-10.428c1.486-7.897-0.754-12.865-5.617-13.546
				C63.242,347.305,58.672,351.732,57.375,358.354z"/>
			<path clip-path="url(#SVGID_20_)" fill="none" stroke="#010101" stroke-width="0.25" stroke-miterlimit="10" d="M70.082,368.65
				c2.922-5.268,4.406-14.124-0.625-17.359c-4.508-2.076-7.234,2.506-8.289,5.935c-0.766,3.104-1.223,6.192,0.41,9.272"/>
			<path clip-path="url(#SVGID_20_)" fill="none" stroke="#010101" stroke-width="0.25" stroke-miterlimit="10" d="M61.535,366.418
				c1.82,2.896,5.316,1.051,6.441-0.701c1.213-1.898,1.947-4.322,1.684-6.58c-0.305-2.628-2.514-4.889-4.984-3.05
				c-0.6,0.447-1.387,1.965-1.578,2.983"/>
			<path clip-path="url(#SVGID_20_)" fill="#FFFFFF" d="M63.74,357.353c-0.277,0.5-0.549,1.088-0.643,1.769
				c-0.199,1.44,0.473,2.725,1.492,2.867c1.029,0.141,2.023-0.912,2.223-2.351l-3.748-0.007"/>
			<path clip-path="url(#SVGID_20_)" fill="none" stroke="#010101" stroke-width="0.25" stroke-miterlimit="10" d="M63.74,357.353
				c-0.277,0.5-0.549,1.088-0.643,1.769c-0.199,1.44,0.473,2.725,1.492,2.867c1.029,0.141,2.023-0.912,2.223-2.351l-3.748-0.007"/>
			
				<line clip-path="url(#SVGID_20_)" fill="none" stroke="#010101" stroke-width="0.25" stroke-miterlimit="10" x1="66.213" y1="355.427" x2="61.783" y2="355.482"/>
			
				<line clip-path="url(#SVGID_20_)" fill="none" stroke="#010101" stroke-width="0.25" stroke-miterlimit="10" x1="60.768" y1="351.055" x2="67.285" y2="350.765"/>
			<path clip-path="url(#SVGID_20_)" fill="#010101" d="M30.561,365.596c0,0,1.602,6.471,0.16,9.189
				c-0.401,0.758,3.015-3.709,3.015-3.709s1.262-0.15,1.806,4.412c0,0,1.781-1.004,1.371-9.295"/>
		</g>
	</g>
</g>
<g>
	<g>
		<defs>
			<rect id="SVGID_21_" y="400" width="80" height="80"/>
		</defs>
		<clipPath id="SVGID_22_">
			<use xlink:href="#SVGID_21_"  overflow="visible"/>
		</clipPath>
		<g clip-path="url(#SVGID_22_)">
			<defs>
				<rect id="SVGID_23_" y="400" width="80" height="80"/>
			</defs>
			<clipPath id="SVGID_24_">
				<use xlink:href="#SVGID_23_"  overflow="visible"/>
			</clipPath>
			<path clip-path="url(#SVGID_24_)" d="M41.028,410.679c0,0-9.75,0.297-11.118,0.832c0,0-2.021,0.478-0.891,1.962
				c0,0,2.557,3.564,0.714,5.229c0,0-1.13,1.545-4.518,2.617c0,0-0.594,21.633,8.321,31.916h0.891c0,0-0.237,2.08,1.189,2.377v0.834
				c0,0,0.357,0.652,1.129,0.533c0,0,0.299,2.318-1.485,2.791c0,0-4.814,0.418-5.527,2.855c0,0-1.486,1.664-0.774,3.15
				c0,0,2.014,3.605,12.069,3.66"/>
			<path clip-path="url(#SVGID_24_)" d="M41.028,410.679c0,0,9.753,0.297,11.118,0.832c0,0,2.021,0.478,0.893,1.962
				c0,0-2.377,3.357-0.713,5.229c0,0,1.129,1.545,4.519,2.617c0,0,0.593,21.633-8.322,31.916h-0.892c0,0,0.236,2.08-1.188,2.377
				v0.834c0,0-0.357,0.652-1.129,0.533c0,0-0.299,2.318,1.484,2.791c0,0,4.813,0.418,5.528,2.855c0,0,1.484,1.664,0.772,3.15
				c0,0-2.013,3.605-12.07,3.66"/>
			<path clip-path="url(#SVGID_24_)" d="M39.933,467.842l1.096,1.291l0.867-1.291l0.225-57.125c0,0-1.603-0.023-2.188,0V467.842z"/>
			
				<path clip-path="url(#SVGID_24_)" fill="none" stroke="#000000" stroke-width="1.5" stroke-linejoin="round" stroke-miterlimit="10" d="
				M31.404,415.51H28.44l-0.796,3.096c0,0-3.301-2.601-2.619-7.927h-8.967c0,0-0.796,23.767,17.753,40.981"/>
			
				<path clip-path="url(#SVGID_24_)" fill="none" stroke="#000000" stroke-width="1.5" stroke-linejoin="round" stroke-miterlimit="10" d="
				M51.791,415.406l1.553-0.013l0.797,3.097c0,0,3.3-2.6,2.618-7.926h9.184c0,0,0.796,23.768-17.756,40.982"/>
			<path clip-path="url(#SVGID_24_)" fill="#FFFFFF" d="M51.811,414.449c0,0-1.371,2.301-0.306,4.192c0,0,0.455,0.958,1.469,1.547
				c1.278,0.745,2.675,1.179,3.477,1.22c0,0-5.004-0.059-6.123-1.943C50.327,419.465,48.748,416.215,51.811,414.449"/>
			<path clip-path="url(#SVGID_24_)" fill="#FFFFFF" d="M25.717,421.688c0,0,2.156,0.631,3.827,0.578c0,0-2.986,2.115-2.761,9.52
				C26.783,431.785,25.704,429.414,25.717,421.688"/>
			
				<path clip-path="url(#SVGID_24_)" fill="none" stroke="#FFFFFF" stroke-width="0.25" stroke-linecap="round" stroke-miterlimit="10" d="
				M44.776,422.376c0,0-16.552,0.508-18.923-0.63"/>
			<path clip-path="url(#SVGID_24_)" fill="#FFFFFF" d="M27.9,424.639c0,0,1.232-2.227,3.354-2.147l-2.242-0.222L27.9,424.639z"/>
			
				<path clip-path="url(#SVGID_24_)" fill="none" stroke="#FFFFFF" stroke-width="0.25" stroke-linecap="round" stroke-miterlimit="10" d="
				M46.505,453.262c0,0,0.388,1.516-0.741,1.635v1.277c0,0-0.18,0.299-1.189,0.387c0,0-0.446,3.002,1.694,3.805
				c0,0,3.092,0.326,4.635,1.813"/>
		</g>
	</g>
</g>
</svg>
